<?xml version="1.0" standalone="no"?>
<!DOCTYPE svg PUBLIC "-//W3C//DTD SVG 20010904//EN"
 "http://www.w3.org/TR/2001/REC-SVG-20010904/DTD/svg10.dtd">
<svg version="1.0" xmlns="http://www.w3.org/2000/svg"
 width="600.000000pt" height="600.000000pt" viewBox="0 0 600.000000 600.000000"
 preserveAspectRatio="xMidYMid meet">

<g transform="translate(0.000000,600.000000) scale(0.100000,-0.100000)"
fill="#000000" stroke="none">
<path d="M750 3030 l0 -1920 165 0 165 0 0 1775 0 1775 1165 2 1165 3 0 -567
0 -568 165 0 165 0 0 710 0 710 -1495 0 -1495 0 0 -1920z"/>
<path d="M1142 2863 l3 -1747 130 -28 c72 -16 317 -69 545 -118 228 -49 592
-128 809 -175 217 -47 398 -85 402 -85 5 0 9 768 9 1729 l0 1729 -32 7 c-18 4
-163 38 -323 75 -1171 276 -1532 360 -1538 360 -4 0 -6 -786 -5 -1747z m1562
-347 c128 -54 45 -230 -88 -186 -95 31 -103 146 -12 186 40 17 59 17 100 0z"/>
<path d="M4470 3531 l0 -221 -630 0 -630 0 0 -415 0 -415 628 -2 627 -3 3
-217 c1 -120 5 -218 7 -218 3 0 197 145 433 322 662 500 687 519 690 527 1 4
-134 111 -300 236 -167 126 -421 318 -565 427 l-263 199 0 -220z"/>
<path d="M3417 2253 c-4 -3 -7 -262 -7 -575 l0 -568 165 0 165 0 0 575 0 575
-158 0 c-87 0 -162 -3 -165 -7z"/>
</g>
</svg>
