<?xml version="1.0" standalone="no"?>
<!DOCTYPE svg PUBLIC "-//W3C//DTD SVG 20010904//EN"
 "http://www.w3.org/TR/2001/REC-SVG-20010904/DTD/svg10.dtd">
<svg version="1.0" xmlns="http://www.w3.org/2000/svg"
 width="980.000000pt" height="980.000000pt" viewBox="0 0 980.000000 980.000000"
 preserveAspectRatio="xMidYMid meet">

<g transform="translate(0.000000,980.000000) scale(0.100000,-0.100000)"
fill="#000000" stroke="none">
<path d="M4615 8269 c-609 -52 -1208 -276 -1705 -637 -636 -464 -1104 -1158
-1290 -1916 -191 -777 -102 -1601 250 -2306 405 -813 1101 -1424 1950 -1712
562 -190 1172 -228 1760 -108 1651 337 2814 1872 2691 3550 -60 817 -404 1571
-977 2144 -535 535 -1200 864 -1954 967 -170 23 -554 33 -725 18z m575 -509
c562 -59 1089 -278 1535 -639 101 -82 331 -313 409 -411 346 -434 561 -951
622 -1490 16 -145 18 -462 4 -600 -40 -386 -167 -783 -356 -1114 -56 -97 -191
-303 -205 -312 -5 -3 -38 19 -72 48 -483 422 -1111 696 -1772 773 -166 20
-530 23 -685 6 -731 -80 -1368 -367 -1907 -858 l-79 -71 -49 61 c-27 34 -83
111 -123 171 -233 349 -375 704 -449 1124 -26 149 -28 173 -27 457 0 328 10
423 74 684 179 727 641 1360 1284 1758 353 218 759 359 1176 408 130 15 492
18 620 5z"/>
<path d="M4780 6609 c-322 -57 -603 -266 -747 -554 -37 -73 -78 -199 -92 -279
-16 -85 -13 -282 3 -368 77 -391 360 -691 754 -800 64 -18 106 -22 247 -22
148 -1 181 2 255 22 521 142 846 643 755 1163 -68 393 -355 709 -737 815 -75
21 -121 26 -238 29 -80 2 -170 0 -200 -6z"/>
</g>
</svg>
